<?xml version="1.0" encoding="UTF-8" standalone="no"?>
<svg
   width="1430.752"
   height="1725.9961"
   viewBox="0 0 146.509 176.742"
   preserveAspectRatio="xMidYMid"
   version="1.1"
   id="svg10"
   sodipodi:docname="platformio-logo-svg-vector.svg"
   xmlns:inkscape="http://www.inkscape.org/namespaces/inkscape"
   xmlns:sodipodi="http://sodipodi.sourceforge.net/DTD/sodipodi-0.dtd"
   xmlns="http://www.w3.org/2000/svg"
   xmlns:svg="http://www.w3.org/2000/svg">
  <sodipodi:namedview
     id="namedview9"
     pagecolor="#ffffff"
     bordercolor="#000000"
     borderopacity="0.25"
     inkscape:showpageshadow="2"
     inkscape:pageopacity="0.0"
     inkscape:pagecheckerboard="0"
     inkscape:deskcolor="#d1d1d1"
     showgrid="false" />
  <defs
     id="defs14" />
  <g
     id="g409"
     style="fill:#ffffff"
     transform="translate(-54.915,-34.787)">
    <path
       d="m 160.869,74.062 5.145,-18.537 c 5.264,-0.47 9.392,-4.886 9.392,-10.273 0,-5.7 -4.62,-10.32 -10.32,-10.32 -5.7,0 -10.32,4.62 -10.32,10.32 0,3.755 2.013,7.03 5.01,8.837 l -5.05,18.195 c -14.437,-3.67 -26.625,-3.39 -26.625,-3.39 l -2.258,1.01 v 140.872 l 2.258,0.753 c 13.614,0 73.177,-41.133 73.323,-85.27 0,-31.624 -21.023,-45.825 -40.555,-52.197 z M 146.53,164.8 c -11.617,-18.557 -6.706,-61.751 23.643,-67.925 8.32,-1.333 18.509,4.134 21.51,16.279 7.582,25.766 -37.015,61.845 -45.153,51.646 z m 18.216,-39.752 a 9.399,9.399 0 0 0 -9.399,9.399 9.399,9.399 0 0 0 9.4,9.399 9.399,9.399 0 0 0 9.398,-9.4 9.399,9.399 0 0 0 -9.399,-9.398 z m 2.81,8.672 a 2.3745,2.3745 0 1 1 0,-4.749 2.3745,2.3745 0 0 1 0,4.749 z"
       fill="#E57200"
       id="path6"
       style="fill:#ffffff" />
    <path
       d="M 101.371,72.709 96.348,53.808 c 2.874,-1.832 4.786,-5.04 4.786,-8.701 0,-5.7 -4.62,-10.32 -10.32,-10.32 -5.699,0 -10.319,4.62 -10.319,10.32 0,5.682 4.592,10.289 10.267,10.317 L 95.8,74.378 c -19.609,6.51 -40.885,20.742 -40.885,51.88 0.436,45.01 59.572,85.267 73.186,85.267 V 68.892 c 0,0 -12.252,-0.062 -26.729,3.817 z m 10.395,92.09 c -8.138,10.2 -52.735,-25.88 -45.154,-51.645 3.002,-12.145 13.19,-17.612 21.511,-16.28 30.35,6.175 35.26,49.369 23.643,67.926 z m -18.82,-39.46 a 9.399,9.399 0 0 0 -9.399,9.398 9.399,9.399 0 0 0 9.4,9.4 9.399,9.399 0 0 0 9.398,-9.4 9.399,9.399 0 0 0 -9.399,-9.399 z m -2.81,8.671 a 2.374,2.374 0 1 1 0,-4.748 2.374,2.374 0 0 1 0,4.748 z"
       fill="#FF7F00"
       id="path8"
       style="fill:#ffffff" />
    <ellipse
       style="fill:#ffffff;stroke:none;stroke-width:0.0256;stroke-linecap:round;stroke-linejoin:round"
       id="path349"
       cx="166.96494"
       cy="132.52721"
       rx="4.3724303"
       ry="4.0628777" />
    <ellipse
       style="fill:#ffffff;stroke:none;stroke-width:0.0256;stroke-linecap:round;stroke-linejoin:round"
       id="path403"
       cx="90.234581"
       cy="131.83072"
       rx="4.101572"
       ry="3.9854898" />
  </g>
</svg>
