<?xml version="1.0" encoding="UTF-8" standalone="no"?>
<svg
   width="2500"
   height="2362.0398"
   viewBox="0 0 256 241.8428"
   preserveAspectRatio="xMidYMid"
   version="1.1"
   id="svg4"
   sodipodi:docname="websocket-logo.svg"
   inkscape:version="1.2.2 (b0a8486541, 2022-12-01)"
   xmlns:inkscape="http://www.inkscape.org/namespaces/inkscape"
   xmlns:sodipodi="http://sodipodi.sourceforge.net/DTD/sodipodi-0.dtd"
   xmlns="http://www.w3.org/2000/svg"
   xmlns:svg="http://www.w3.org/2000/svg">
  <defs
     id="defs8">
    <rect
       x="65.085861"
       y="2033.5828"
       width="1431.4708"
       height="477.47464"
       id="rect1739" />
    <rect
       x="65.416336"
       y="2032.9817"
       width="1491.2876"
       height="678.44421"
       id="rect1733" />
    <rect
       x="0"
       y="1888.5391"
       width="2500"
       height="649.34857"
       id="rect1001" />
    <rect
       x="0"
       y="1885"
       width="2500"
       height="663.73175"
       id="rect995" />
  </defs>
  <sodipodi:namedview
     id="namedview6"
     pagecolor="#ffffff"
     bordercolor="#666666"
     borderopacity="1.0"
     inkscape:showpageshadow="2"
     inkscape:pageopacity="0.0"
     inkscape:pagecheckerboard="0"
     inkscape:deskcolor="#d1d1d1"
     showgrid="false"
     inkscape:zoom="0.27241379"
     inkscape:cx="921.3924"
     inkscape:cy="1119.6203"
     inkscape:window-width="1680"
     inkscape:window-height="1050"
     inkscape:window-x="2560"
     inkscape:window-y="138"
     inkscape:window-maximized="1"
     inkscape:current-layer="svg4" />
  <path
     d="m 192.44,144.633 h 31.78 V 68.327 L 188.415,32.523 165.943,54.995 192.44,81.492 v 63.14 z m 31.864,15.931 H 113.452 l -26.498,-26.496 11.237,-11.236 21.885,21.885 h 45.028 l -44.357,-44.441 11.32,-11.32 44.357,44.358 V 88.284 L 154.623,66.483 165.775,55.33 110.685,-0.012 H 0 l 31.696,31.696 v 0.084 h 65.74 L 120.663,54.995 86.703,88.955 63.476,65.728 V 47.7 h -31.78 v 31.193 l 55.007,55.007 -22.389,22.388 35.805,35.805 H 256 Z"
     fill="#231F20"
     id="path2"
     style="fill:#df8020;fill-opacity:1" />
  <text
     xml:space="preserve"
     transform="matrix(0.48744619,0,0,0.48744619,-33.268525,-791.46603)"
     id="text1737"
     style="font-size:96px;line-height:1.25;font-family:'DejaVu Sans';-inkscape-font-specification:'DejaVu Sans, Normal';white-space:pre;shape-inside:url(#rect1739)"><tspan
       x="65.085938"
       y="2118.5195"
       id="tspan2547"><tspan
         style="fill:#df8020"
         id="tspan2545">WebSocket</tspan></tspan></text>
</svg>
